<svg xmlns="http://www.w3.org/2000/svg" width="1100" height="550" viewBox="0 0 1100 550" font-family="'Noto Sans CJK JP', 'Noto Sans JP', 'Yu Gothic', 'Hiragino Sans', Meiryo, 'MS PGothic', 'Helvetica Neue', Arial, sans-serif">
  <rect width="100%" height="100%" fill="#ffffff"/>
  <text x="550" y="28" text-anchor="middle" font-size="18" font-weight="bold" fill="#1a1a1a">編集履歴: chart-demo.docx</text>

  <!-- ゼロ軸 -->
  <line x1="70" y1="270" x2="1030" y2="270" stroke="#333" stroke-width="1"/>
  <!-- プロット枠 -->
  <line x1="70" y1="60" x2="70" y2="480" stroke="#333" stroke-width="1"/>
  <line x1="1030" y1="60" x2="1030" y2="480" stroke="#ccd7e6" stroke-width="1"/>

  <line x1="65" y1="470.00" x2="70" y2="470.00" stroke="#999"/>
  <text x="60" y="474.00" font-size="10" fill="#555" text-anchor="end">250</text>
  <line x1="65" y1="420.00" x2="70" y2="420.00" stroke="#999"/>
  <text x="60" y="424.00" font-size="10" fill="#555" text-anchor="end">188</text>
  <line x1="65" y1="370.00" x2="70" y2="370.00" stroke="#999"/>
  <text x="60" y="374.00" font-size="10" fill="#555" text-anchor="end">125</text>
  <line x1="65" y1="320.00" x2="70" y2="320.00" stroke="#999"/>
  <text x="60" y="324.00" font-size="10" fill="#555" text-anchor="end">63</text>
  <line x1="65" y1="270.00" x2="70" y2="270.00" stroke="#999"/>
  <text x="60" y="274.00" font-size="10" fill="#555" text-anchor="end">0</text>
  <line x1="65" y1="220.00" x2="70" y2="220.00" stroke="#999"/>
  <text x="60" y="224.00" font-size="10" fill="#555" text-anchor="end">63</text>
  <line x1="65" y1="170.00" x2="70" y2="170.00" stroke="#999"/>
  <text x="60" y="174.00" font-size="10" fill="#555" text-anchor="end">125</text>
  <line x1="65" y1="120.00" x2="70" y2="120.00" stroke="#999"/>
  <text x="60" y="124.00" font-size="10" fill="#555" text-anchor="end">188</text>
  <line x1="65" y1="70.00" x2="70" y2="70.00" stroke="#999"/>
  <text x="60" y="74.00" font-size="10" fill="#555" text-anchor="end">250</text>
  <line x1="1030.00" y1="480.00" x2="1035.00" y2="480.00" stroke="#424242"/>
  <text x="1040.00" y="484.00" font-size="10" fill="#424242" text-anchor="start">0</text>
  <line x1="1030.00" y1="375.00" x2="1035.00" y2="375.00" stroke="#424242"/>
  <text x="1040.00" y="379.00" font-size="10" fill="#424242" text-anchor="start">706</text>
  <line x1="1030.00" y1="270.00" x2="1035.00" y2="270.00" stroke="#424242"/>
  <text x="1040.00" y="274.00" font-size="10" fill="#424242" text-anchor="start">1412</text>
  <line x1="1030.00" y1="165.00" x2="1035.00" y2="165.00" stroke="#424242"/>
  <text x="1040.00" y="169.00" font-size="10" fill="#424242" text-anchor="start">2118</text>
  <line x1="1030.00" y1="60.00" x2="1035.00" y2="60.00" stroke="#424242"/>
  <text x="1040.00" y="64.00" font-size="10" fill="#424242" text-anchor="start">2824</text>
  <text x="82.97" y="500.00" font-size="11" fill="#333" text-anchor="middle">09:00</text>
  <text x="186.76" y="500.00" font-size="11" fill="#333" text-anchor="middle">09:20</text>
  <text x="290.54" y="500.00" font-size="11" fill="#333" text-anchor="middle">09:40</text>
  <text x="394.32" y="500.00" font-size="11" fill="#333" text-anchor="middle">10:00</text>
  <text x="498.11" y="500.00" font-size="11" fill="#333" text-anchor="middle">10:20</text>
  <text x="601.89" y="500.00" font-size="11" fill="#333" text-anchor="middle">10:40</text>
  <text x="705.68" y="500.00" font-size="11" fill="#333" text-anchor="middle">11:00</text>
  <text x="809.46" y="500.00" font-size="11" fill="#333" text-anchor="middle">11:20</text>
  <text x="913.24" y="500.00" font-size="11" fill="#333" text-anchor="middle">11:40</text>
  <text x="1017.03" y="500.00" font-size="11" fill="#333" text-anchor="middle">12:00</text>

  <g><rect x="73.89" y="234.80" width="18.16" height="35.20" fill="rgb(22,128,61)" fill-opacity="0.85"><title>細かい編集 44文字 (2026-06-10T00:00:38.330Z)</title></rect>
  <rect x="99.84" y="235.60" width="18.16" height="34.40" fill="rgb(22,128,61)" fill-opacity="0.85"><title>細かい編集 43文字 (2026-06-10T00:05:38.330Z)</title></rect>
  <rect x="125.78" y="246.00" width="18.16" height="24.00" fill="rgb(22,128,61)" fill-opacity="0.85"><title>細かい編集 30文字 (2026-06-10T00:10:38.330Z)</title></rect>
  <rect x="151.73" y="235.60" width="18.16" height="34.40" fill="rgb(22,128,61)" fill-opacity="0.85"><title>細かい編集 43文字 (2026-06-10T00:15:38.330Z)</title></rect><rect x="151.73" y="270.00" width="18.16" height="48.00" fill="rgb(198,40,40)" fill-opacity="0.85"><title>削除 60文字 (2026-06-10T00:15:38.330Z)</title></rect>
  <rect x="177.68" y="235.60" width="18.16" height="34.40" fill="rgb(22,128,61)" fill-opacity="0.85"><title>細かい編集 43文字 (2026-06-10T00:20:38.330Z)</title></rect><rect x="177.68" y="270.00" width="18.16" height="144.00" fill="rgb(198,40,40)" fill-opacity="0.85"><title>削除 180文字 (2026-06-10T00:20:38.330Z)</title></rect>
  <rect x="203.62" y="242.00" width="18.16" height="28.00" fill="rgb(22,128,61)" fill-opacity="0.85"><title>細かい編集 35文字 (2026-06-10T00:25:38.330Z)</title></rect>
  <rect x="229.57" y="222.80" width="18.16" height="47.20" fill="rgb(22,128,61)" fill-opacity="0.85"><title>細かい編集 59文字 (2026-06-10T00:30:38.330Z)</title></rect>
  <rect x="255.51" y="231.60" width="18.16" height="38.40" fill="rgb(22,128,61)" fill-opacity="0.85"><title>細かい編集 48文字 (2026-06-10T00:35:38.330Z)</title></rect>
  <rect x="281.46" y="237.20" width="18.16" height="32.80" fill="rgb(22,128,61)" fill-opacity="0.85"><title>細かい編集 41文字 (2026-06-10T00:40:38.330Z)</title></rect>
  <rect x="307.41" y="215.60" width="18.16" height="54.40" fill="rgb(22,128,61)" fill-opacity="0.85"><title>細かい編集 68文字 (2026-06-10T00:45:38.330Z)</title></rect>
  <rect x="333.35" y="228.40" width="18.16" height="41.60" fill="rgb(22,128,61)" fill-opacity="0.85"><title>細かい編集 52文字 (2026-06-10T00:50:38.330Z)</title></rect><rect x="333.35" y="270.00" width="18.16" height="14.40" fill="rgb(198,40,40)" fill-opacity="0.85"><title>削除 18文字 (2026-06-10T00:50:38.330Z)</title></rect>
  <rect x="359.30" y="230.00" width="18.16" height="40.00" fill="rgb(22,128,61)" fill-opacity="0.85"><title>細かい編集 50文字 (2026-06-10T00:55:38.330Z)</title></rect>
  <rect x="385.24" y="230.80" width="18.16" height="39.20" fill="rgb(22,128,61)" fill-opacity="0.85"><title>細かい編集 49文字 (2026-06-10T01:00:38.330Z)</title></rect>
  <rect x="411.19" y="226.00" width="18.16" height="44.00" fill="rgb(22,128,61)" fill-opacity="0.85"><title>細かい編集 55文字 (2026-06-10T01:05:38.330Z)</title></rect>
  <rect x="437.14" y="224.40" width="18.16" height="45.60" fill="rgb(22,128,61)" fill-opacity="0.85"><title>細かい編集 57文字 (2026-06-10T01:10:38.330Z)</title></rect><rect x="437.14" y="270.00" width="18.16" height="98.40" fill="rgb(198,40,40)" fill-opacity="0.85"><title>削除 123文字 (2026-06-10T01:10:38.330Z)</title></rect>
  <rect x="463.08" y="239.60" width="18.16" height="30.40" fill="rgb(22,128,61)" fill-opacity="0.85"><title>細かい編集 38文字 (2026-06-10T01:15:38.330Z)</title></rect>
  <rect x="489.03" y="96.40" width="18.16" height="173.60" fill="rgb(234,108,0)" fill-opacity="0.85"><title>一括挿入 217文字 (2026-06-10T01:20:38.330Z)</title></rect><rect x="489.03" y="70.00" width="18.16" height="26.40" fill="rgb(22,128,61)" fill-opacity="0.85"><title>細かい編集 33文字 (2026-06-10T01:20:38.330Z)</title></rect><rect x="489.03" y="270.00" width="18.16" height="160.00" fill="rgb(198,40,40)" fill-opacity="0.85"><title>削除 200文字 (2026-06-10T01:20:38.330Z)</title></rect>
  <rect x="514.97" y="227.60" width="18.16" height="42.40" fill="rgb(22,128,61)" fill-opacity="0.85"><title>細かい編集 53文字 (2026-06-10T01:25:38.330Z)</title></rect><rect x="514.97" y="270.00" width="18.16" height="2.40" fill="rgb(198,40,40)" fill-opacity="0.85"><title>削除 3文字 (2026-06-10T01:25:38.330Z)</title></rect>
  <rect x="540.92" y="237.20" width="18.16" height="32.80" fill="rgb(22,128,61)" fill-opacity="0.85"><title>細かい編集 41文字 (2026-06-10T01:30:38.330Z)</title></rect>
  <rect x="566.86" y="228.40" width="18.16" height="41.60" fill="rgb(22,128,61)" fill-opacity="0.85"><title>細かい編集 52文字 (2026-06-10T01:35:38.330Z)</title></rect>
  <rect x="592.81" y="238.80" width="18.16" height="31.20" fill="rgb(22,128,61)" fill-opacity="0.85"><title>細かい編集 39文字 (2026-06-10T01:40:38.330Z)</title></rect><rect x="592.81" y="270.00" width="18.16" height="28.00" fill="rgb(198,40,40)" fill-opacity="0.85"><title>削除 35文字 (2026-06-10T01:40:38.330Z)</title></rect>
  <rect x="618.76" y="222.00" width="18.16" height="48.00" fill="rgb(22,128,61)" fill-opacity="0.85"><title>細かい編集 60文字 (2026-06-10T01:45:38.330Z)</title></rect>
  <rect x="644.70" y="238.80" width="18.16" height="31.20" fill="rgb(22,128,61)" fill-opacity="0.85"><title>細かい編集 39文字 (2026-06-10T01:50:38.330Z)</title></rect><rect x="644.70" y="270.00" width="18.16" height="8.00" fill="rgb(198,40,40)" fill-opacity="0.85"><title>削除 10文字 (2026-06-10T01:50:38.330Z)</title></rect>
  <rect x="670.65" y="240.40" width="18.16" height="29.60" fill="rgb(22,128,61)" fill-opacity="0.85"><title>細かい編集 37文字 (2026-06-10T01:55:38.330Z)</title></rect><rect x="670.65" y="270.00" width="18.16" height="104.00" fill="rgb(198,40,40)" fill-opacity="0.85"><title>削除 130文字 (2026-06-10T01:55:38.330Z)</title></rect>
  <rect x="696.59" y="232.40" width="18.16" height="37.60" fill="rgb(22,128,61)" fill-opacity="0.85"><title>細かい編集 47文字 (2026-06-10T02:00:38.330Z)</title></rect><rect x="696.59" y="270.00" width="18.16" height="48.00" fill="rgb(198,40,40)" fill-opacity="0.85"><title>削除 60文字 (2026-06-10T02:00:38.330Z)</title></rect>
  <rect x="722.54" y="239.60" width="18.16" height="30.40" fill="rgb(22,128,61)" fill-opacity="0.85"><title>細かい編集 38文字 (2026-06-10T02:05:38.330Z)</title></rect>
  <rect x="748.49" y="229.20" width="18.16" height="40.80" fill="rgb(22,128,61)" fill-opacity="0.85"><title>細かい編集 51文字 (2026-06-10T02:10:38.330Z)</title></rect>
  <rect x="774.43" y="233.20" width="18.16" height="36.80" fill="rgb(22,128,61)" fill-opacity="0.85"><title>細かい編集 46文字 (2026-06-10T02:15:38.330Z)</title></rect>
  <rect x="800.38" y="239.60" width="18.16" height="30.40" fill="rgb(22,128,61)" fill-opacity="0.85"><title>細かい編集 38文字 (2026-06-10T02:20:38.330Z)</title></rect>
  <rect x="826.32" y="237.20" width="18.16" height="32.80" fill="rgb(22,128,61)" fill-opacity="0.85"><title>細かい編集 41文字 (2026-06-10T02:25:38.330Z)</title></rect>
  <rect x="852.27" y="229.20" width="18.16" height="40.80" fill="rgb(22,128,61)" fill-opacity="0.85"><title>細かい編集 51文字 (2026-06-10T02:30:38.330Z)</title></rect>
  <rect x="878.22" y="239.60" width="18.16" height="30.40" fill="rgb(22,128,61)" fill-opacity="0.85"><title>細かい編集 38文字 (2026-06-10T02:35:38.330Z)</title></rect>
  <rect x="904.16" y="222.80" width="18.16" height="47.20" fill="rgb(22,128,61)" fill-opacity="0.85"><title>細かい編集 59文字 (2026-06-10T02:40:38.330Z)</title></rect><rect x="904.16" y="270.00" width="18.16" height="88.00" fill="rgb(198,40,40)" fill-opacity="0.85"><title>削除 110文字 (2026-06-10T02:40:38.330Z)</title></rect>
  <rect x="930.11" y="233.20" width="18.16" height="36.80" fill="rgb(22,128,61)" fill-opacity="0.85"><title>細かい編集 46文字 (2026-06-10T02:45:38.330Z)</title></rect><rect x="930.11" y="270.00" width="18.16" height="15.20" fill="rgb(198,40,40)" fill-opacity="0.85"><title>削除 19文字 (2026-06-10T02:45:38.330Z)</title></rect>
  <rect x="956.05" y="234.80" width="18.16" height="35.20" fill="rgb(22,128,61)" fill-opacity="0.85"><title>細かい編集 44文字 (2026-06-10T02:50:38.330Z)</title></rect>
  <rect x="982.00" y="237.20" width="18.16" height="32.80" fill="rgb(22,128,61)" fill-opacity="0.85"><title>細かい編集 41文字 (2026-06-10T02:55:38.330Z)</title></rect>
  <rect x="1007.95" y="266.00" width="18.16" height="4.00" fill="rgb(22,128,61)" fill-opacity="0.85"><title>細かい編集 5文字 (2026-06-10T03:00:38.330Z)</title></rect></g>

  <polyline points="82.97,190.73 108.92,184.33 134.86,179.87 160.81,182.40 186.76,202.78 212.70,197.57 238.65,188.80 264.59,181.66 290.54,175.56 316.49,165.45 342.43,160.39 368.38,152.95 394.32,145.67 420.27,137.49 446.22,147.30 472.16,141.65 498.11,134.21 524.05,126.78 550.00,120.68 575.95,112.95 601.89,112.35 627.84,103.43 653.78,99.11 679.73,112.95 705.68,114.88 731.62,109.23 757.57,101.64 783.51,94.80 809.46,89.15 835.41,83.05 861.35,75.47 887.30,69.82 913.24,77.40 939.19,73.39 965.14,66.84 991.08,60.74 1017.03,60.00" fill="none" stroke="#424242" stroke-width="2.5"/>
  <g fill="#424242"><circle cx="82.97" cy="190.73" r="2.5"><title>総文字数 1945 (2026-06-10T00:05:38.330Z)</title></circle><circle cx="108.92" cy="184.33" r="2.5"><title>総文字数 1988 (2026-06-10T00:10:38.330Z)</title></circle><circle cx="134.86" cy="179.87" r="2.5"><title>総文字数 2018 (2026-06-10T00:15:38.330Z)</title></circle><circle cx="160.81" cy="182.40" r="2.5"><title>総文字数 2001 (2026-06-10T00:20:38.330Z)</title></circle><circle cx="186.76" cy="202.78" r="2.5"><title>総文字数 1864 (2026-06-10T00:25:38.330Z)</title></circle><circle cx="212.70" cy="197.57" r="2.5"><title>総文字数 1899 (2026-06-10T00:30:38.330Z)</title></circle><circle cx="238.65" cy="188.80" r="2.5"><title>総文字数 1958 (2026-06-10T00:35:38.330Z)</title></circle><circle cx="264.59" cy="181.66" r="2.5"><title>総文字数 2006 (2026-06-10T00:40:38.330Z)</title></circle><circle cx="290.54" cy="175.56" r="2.5"><title>総文字数 2047 (2026-06-10T00:45:38.330Z)</title></circle><circle cx="316.49" cy="165.45" r="2.5"><title>総文字数 2115 (2026-06-10T00:50:38.330Z)</title></circle><circle cx="342.43" cy="160.39" r="2.5"><title>総文字数 2149 (2026-06-10T00:55:38.330Z)</title></circle><circle cx="368.38" cy="152.95" r="2.5"><title>総文字数 2199 (2026-06-10T01:00:38.330Z)</title></circle><circle cx="394.32" cy="145.67" r="2.5"><title>総文字数 2248 (2026-06-10T01:05:38.330Z)</title></circle><circle cx="420.27" cy="137.49" r="2.5"><title>総文字数 2303 (2026-06-10T01:10:38.330Z)</title></circle><circle cx="446.22" cy="147.30" r="2.5"><title>総文字数 2237 (2026-06-10T01:15:38.330Z)</title></circle><circle cx="472.16" cy="141.65" r="2.5"><title>総文字数 2275 (2026-06-10T01:20:38.330Z)</title></circle><circle cx="498.11" cy="134.21" r="2.5"><title>総文字数 2325 (2026-06-10T01:25:38.330Z)</title></circle><circle cx="524.05" cy="126.78" r="2.5"><title>総文字数 2375 (2026-06-10T01:30:38.330Z)</title></circle><circle cx="550.00" cy="120.68" r="2.5"><title>総文字数 2416 (2026-06-10T01:35:38.330Z)</title></circle><circle cx="575.95" cy="112.95" r="2.5"><title>総文字数 2468 (2026-06-10T01:40:38.330Z)</title></circle><circle cx="601.89" cy="112.35" r="2.5"><title>総文字数 2472 (2026-06-10T01:45:38.330Z)</title></circle><circle cx="627.84" cy="103.43" r="2.5"><title>総文字数 2532 (2026-06-10T01:50:38.330Z)</title></circle><circle cx="653.78" cy="99.11" r="2.5"><title>総文字数 2561 (2026-06-10T01:55:38.330Z)</title></circle><circle cx="679.73" cy="112.95" r="2.5"><title>総文字数 2468 (2026-06-10T02:00:38.330Z)</title></circle><circle cx="705.68" cy="114.88" r="2.5"><title>総文字数 2455 (2026-06-10T02:05:38.330Z)</title></circle><circle cx="731.62" cy="109.23" r="2.5"><title>総文字数 2493 (2026-06-10T02:10:38.330Z)</title></circle><circle cx="757.57" cy="101.64" r="2.5"><title>総文字数 2544 (2026-06-10T02:15:38.330Z)</title></circle><circle cx="783.51" cy="94.80" r="2.5"><title>総文字数 2590 (2026-06-10T02:20:38.330Z)</title></circle><circle cx="809.46" cy="89.15" r="2.5"><title>総文字数 2628 (2026-06-10T02:25:38.330Z)</title></circle><circle cx="835.41" cy="83.05" r="2.5"><title>総文字数 2669 (2026-06-10T02:30:38.330Z)</title></circle><circle cx="861.35" cy="75.47" r="2.5"><title>総文字数 2720 (2026-06-10T02:35:38.330Z)</title></circle><circle cx="887.30" cy="69.82" r="2.5"><title>総文字数 2758 (2026-06-10T02:40:38.330Z)</title></circle><circle cx="913.24" cy="77.40" r="2.5"><title>総文字数 2707 (2026-06-10T02:45:38.330Z)</title></circle><circle cx="939.19" cy="73.39" r="2.5"><title>総文字数 2734 (2026-06-10T02:50:38.330Z)</title></circle><circle cx="965.14" cy="66.84" r="2.5"><title>総文字数 2778 (2026-06-10T02:55:38.330Z)</title></circle><circle cx="991.08" cy="60.74" r="2.5"><title>総文字数 2819 (2026-06-10T03:00:38.330Z)</title></circle><circle cx="1017.03" cy="60.00" r="2.5"><title>総文字数 2824 (2026-06-10T03:05:38.330Z)</title></circle></g>

  <text x="20" y="50" font-size="11" fill="#555">文字数(追加/削除)</text>
  <text x="1010" y="50" font-size="11" fill="#424242">総文字数</text>

  <!-- 凡例 -->
  <g transform="translate(70, 528)"><rect x="0" y="-10" width="14" height="14" fill="rgb(234,108,0)" fill-opacity="0.85"/><text x="20" y="1" font-size="12" fill="#333">一括挿入</text><rect x="84" y="-10" width="14" height="14" fill="rgb(22,128,61)" fill-opacity="0.85"/><text x="104" y="1" font-size="12" fill="#333">細かい編集</text><rect x="180" y="-10" width="14" height="14" fill="rgb(198,40,40)" fill-opacity="0.85"/><text x="200" y="1" font-size="12" fill="#333">削除</text><line x1="240" y1="-3" x2="260" y2="-3" stroke="#424242" stroke-width="2.5"/><text x="266" y="1" font-size="12" fill="#333">総文字数</text></g>
</svg>