<svg xmlns="http://www.w3.org/2000/svg" width="981.38" height="550" viewBox="0 0 981.38 550" font-family="'Noto Sans CJK JP', 'Noto Sans JP', 'Yu Gothic', 'Hiragino Sans', Meiryo, 'MS PGothic', 'Helvetica Neue', Arial, sans-serif">
  <rect width="100%" height="100%" fill="#ffffff"/>
  <text x="490.69" y="28" text-anchor="middle" font-size="18" font-weight="bold" fill="#1a1a1a">編集履歴: chart-demo.docx (最終更新 2026/09/29 11:37)</text>
  <text x="490.69" y="48" text-anchor="middle" font-size="12" fill="#777">(2時間以上更新が無い期間で区切って表示)</text>

  <line x1="70.00" y1="286" x2="326.00" y2="286" stroke="#333" stroke-width="1"/>
  <line x1="374.10" y1="286" x2="678.10" y2="286" stroke="#333" stroke-width="1"/>
  <line x1="719.38" y1="286" x2="911.38" y2="286" stroke="#333" stroke-width="1"/>

  <line x1="65" y1="470.00" x2="70" y2="470.00" stroke="#999"/>
  <text x="60" y="474.00" font-size="10" fill="#555" text-anchor="end">268</text>
  <line x1="65" y1="424.00" x2="70" y2="424.00" stroke="#999"/>
  <text x="60" y="428.00" font-size="10" fill="#555" text-anchor="end">201</text>
  <line x1="65" y1="378.00" x2="70" y2="378.00" stroke="#999"/>
  <text x="60" y="382.00" font-size="10" fill="#555" text-anchor="end">134</text>
  <line x1="65" y1="332.00" x2="70" y2="332.00" stroke="#999"/>
  <text x="60" y="336.00" font-size="10" fill="#555" text-anchor="end">67</text>
  <line x1="65" y1="286.00" x2="70" y2="286.00" stroke="#999"/>
  <text x="60" y="290.00" font-size="10" fill="#555" text-anchor="end">0</text>
  <line x1="65" y1="240.00" x2="70" y2="240.00" stroke="#999"/>
  <text x="60" y="244.00" font-size="10" fill="#555" text-anchor="end">67</text>
  <line x1="65" y1="194.00" x2="70" y2="194.00" stroke="#999"/>
  <text x="60" y="198.00" font-size="10" fill="#555" text-anchor="end">134</text>
  <line x1="65" y1="148.00" x2="70" y2="148.00" stroke="#999"/>
  <text x="60" y="152.00" font-size="10" fill="#555" text-anchor="end">201</text>
  <line x1="65" y1="102.00" x2="70" y2="102.00" stroke="#999"/>
  <text x="60" y="106.00" font-size="10" fill="#555" text-anchor="end">268</text>
  <line x1="911.38" y1="480.00" x2="916.38" y2="480.00" stroke="#424242"/>
  <text x="921.38" y="484.00" font-size="10" fill="#424242" text-anchor="start">0</text>
  <line x1="911.38" y1="383.00" x2="916.38" y2="383.00" stroke="#424242"/>
  <text x="921.38" y="387.00" font-size="10" fill="#424242" text-anchor="start">819</text>
  <line x1="911.38" y1="286.00" x2="916.38" y2="286.00" stroke="#424242"/>
  <text x="921.38" y="290.00" font-size="10" fill="#424242" text-anchor="start">1638</text>
  <line x1="911.38" y1="189.00" x2="916.38" y2="189.00" stroke="#424242"/>
  <text x="921.38" y="193.00" font-size="10" fill="#424242" text-anchor="start">2456</text>
  <line x1="911.38" y1="92.00" x2="916.38" y2="92.00" stroke="#424242"/>
  <text x="921.38" y="96.00" font-size="10" fill="#424242" text-anchor="start">3275</text>
  <line x1="326.00" y1="92" x2="326.00" y2="480.00" stroke="#bbb" stroke-dasharray="2,3"/>
  <line x1="374.10" y1="92" x2="374.10" y2="480.00" stroke="#bbb" stroke-dasharray="2,3"/>
  <rect x="330.00" y="278.00" width="40.10" height="16" fill="#ffffff" fill-opacity="0.85"/>
  <text x="350.05" y="290.00" font-size="11" fill="#777" text-anchor="middle">4.5 h</text>
  <line x1="678.10" y1="92" x2="678.10" y2="480.00" stroke="#bbb" stroke-dasharray="2,3"/>
  <line x1="719.38" y1="92" x2="719.38" y2="480.00" stroke="#bbb" stroke-dasharray="2,3"/>
  <rect x="682.10" y="278.00" width="33.28" height="16" fill="#ffffff" fill-opacity="0.85"/>
  <text x="698.74" y="290.00" font-size="11" fill="#777" text-anchor="middle">17 h</text>

  <text x="198.00" y="66" text-anchor="middle" font-size="12" font-weight="bold" fill="#444">06/10</text><g><rect x="72.40" y="255.79" width="11.20" height="30.21" fill="rgb(22,128,61)" fill-opacity="0.85"><title>細かい編集 44文字 (2026-06-10T00:00:38.330Z)</title></rect><rect x="88.40" y="256.48" width="11.20" height="29.52" fill="rgb(22,128,61)" fill-opacity="0.85"><title>細かい編集 43文字 (2026-06-10T00:05:38.330Z)</title></rect><rect x="104.40" y="265.40" width="11.20" height="20.60" fill="rgb(22,128,61)" fill-opacity="0.85"><title>細かい編集 30文字 (2026-06-10T00:10:38.330Z)</title></rect><rect x="120.40" y="256.48" width="11.20" height="29.52" fill="rgb(22,128,61)" fill-opacity="0.85"><title>細かい編集 43文字 (2026-06-10T00:15:38.330Z)</title></rect><rect x="120.40" y="286.00" width="11.20" height="41.19" fill="rgb(198,40,40)" fill-opacity="0.85"><title>削除 60文字 (2026-06-10T00:15:38.330Z)</title></rect><rect x="136.40" y="256.48" width="11.20" height="29.52" fill="rgb(22,128,61)" fill-opacity="0.85"><title>細かい編集 43文字 (2026-06-10T00:20:38.330Z)</title></rect><rect x="136.40" y="286.00" width="11.20" height="123.58" fill="rgb(198,40,40)" fill-opacity="0.85"><title>削除 180文字 (2026-06-10T00:20:38.330Z)</title></rect><rect x="152.40" y="261.97" width="11.20" height="24.03" fill="rgb(22,128,61)" fill-opacity="0.85"><title>細かい編集 35文字 (2026-06-10T00:25:38.330Z)</title></rect><rect x="168.40" y="245.49" width="11.20" height="40.51" fill="rgb(22,128,61)" fill-opacity="0.85"><title>細かい編集 59文字 (2026-06-10T00:30:38.330Z)</title></rect><rect x="184.40" y="253.04" width="11.20" height="32.96" fill="rgb(22,128,61)" fill-opacity="0.85"><title>細かい編集 48文字 (2026-06-10T00:35:38.330Z)</title></rect><rect x="200.40" y="257.85" width="11.20" height="28.15" fill="rgb(22,128,61)" fill-opacity="0.85"><title>細かい編集 41文字 (2026-06-10T00:40:38.330Z)</title></rect><rect x="216.40" y="239.31" width="11.20" height="46.69" fill="rgb(22,128,61)" fill-opacity="0.85"><title>細かい編集 68文字 (2026-06-10T00:45:38.330Z)</title></rect><rect x="232.40" y="250.30" width="11.20" height="35.70" fill="rgb(22,128,61)" fill-opacity="0.85"><title>細かい編集 52文字 (2026-06-10T00:50:38.330Z)</title></rect><rect x="232.40" y="286.00" width="11.20" height="12.36" fill="rgb(198,40,40)" fill-opacity="0.85"><title>削除 18文字 (2026-06-10T00:50:38.330Z)</title></rect><rect x="248.40" y="251.67" width="11.20" height="34.33" fill="rgb(22,128,61)" fill-opacity="0.85"><title>細かい編集 50文字 (2026-06-10T00:55:38.330Z)</title></rect><rect x="264.40" y="252.36" width="11.20" height="33.64" fill="rgb(22,128,61)" fill-opacity="0.85"><title>細かい編集 49文字 (2026-06-10T01:00:38.330Z)</title></rect><rect x="280.40" y="248.24" width="11.20" height="37.76" fill="rgb(22,128,61)" fill-opacity="0.85"><title>細かい編集 55文字 (2026-06-10T01:05:38.330Z)</title></rect><rect x="296.40" y="246.87" width="11.20" height="39.13" fill="rgb(22,128,61)" fill-opacity="0.85"><title>細かい編集 57文字 (2026-06-10T01:10:38.330Z)</title></rect><rect x="296.40" y="286.00" width="11.20" height="84.45" fill="rgb(198,40,40)" fill-opacity="0.85"><title>削除 123文字 (2026-06-10T01:10:38.330Z)</title></rect><rect x="312.40" y="259.91" width="11.20" height="26.09" fill="rgb(22,128,61)" fill-opacity="0.85"><title>細かい編集 38文字 (2026-06-10T01:15:38.330Z)</title></rect></g><polyline points="78.00,249.57 94.00,244.48 110.00,240.92 126.00,242.93 142.00,259.17 158.00,255.02 174.00,248.03 190.00,242.34 206.00,237.49 222.00,229.43 238.00,225.40 254.00,219.48 270.00,213.67 286.00,207.16 302.00,214.98 318.00,210.47" fill="none" stroke="#424242" stroke-width="2.5"/><g fill="#424242"><circle cx="78.00" cy="249.57" r="2.5"><title>総文字数 1945 (2026-06-10T00:05:38.330Z)</title></circle><circle cx="94.00" cy="244.48" r="2.5"><title>総文字数 1988 (2026-06-10T00:10:38.330Z)</title></circle><circle cx="110.00" cy="240.92" r="2.5"><title>総文字数 2018 (2026-06-10T00:15:38.330Z)</title></circle><circle cx="126.00" cy="242.93" r="2.5"><title>総文字数 2001 (2026-06-10T00:20:38.330Z)</title></circle><circle cx="142.00" cy="259.17" r="2.5"><title>総文字数 1864 (2026-06-10T00:25:38.330Z)</title></circle><circle cx="158.00" cy="255.02" r="2.5"><title>総文字数 1899 (2026-06-10T00:30:38.330Z)</title></circle><circle cx="174.00" cy="248.03" r="2.5"><title>総文字数 1958 (2026-06-10T00:35:38.330Z)</title></circle><circle cx="190.00" cy="242.34" r="2.5"><title>総文字数 2006 (2026-06-10T00:40:38.330Z)</title></circle><circle cx="206.00" cy="237.49" r="2.5"><title>総文字数 2047 (2026-06-10T00:45:38.330Z)</title></circle><circle cx="222.00" cy="229.43" r="2.5"><title>総文字数 2115 (2026-06-10T00:50:38.330Z)</title></circle><circle cx="238.00" cy="225.40" r="2.5"><title>総文字数 2149 (2026-06-10T00:55:38.330Z)</title></circle><circle cx="254.00" cy="219.48" r="2.5"><title>総文字数 2199 (2026-06-10T01:00:38.330Z)</title></circle><circle cx="270.00" cy="213.67" r="2.5"><title>総文字数 2248 (2026-06-10T01:05:38.330Z)</title></circle><circle cx="286.00" cy="207.16" r="2.5"><title>総文字数 2303 (2026-06-10T01:10:38.330Z)</title></circle><circle cx="302.00" cy="214.98" r="2.5"><title>総文字数 2237 (2026-06-10T01:15:38.330Z)</title></circle><circle cx="318.00" cy="210.47" r="2.5"><title>総文字数 2275 (2026-06-10T01:20:38.330Z)</title></circle></g><text x="78.00" y="500.00" font-size="10" fill="#333" text-anchor="middle">09:00</text><text x="174.00" y="500.00" font-size="10" fill="#333" text-anchor="middle">09:30</text><text x="270.00" y="500.00" font-size="10" fill="#333" text-anchor="middle">10:00</text>
  <text x="526.10" y="66" text-anchor="middle" font-size="12" font-weight="bold" fill="#444">06/10</text><g><rect x="376.50" y="250.99" width="11.20" height="35.01" fill="rgb(22,128,61)" fill-opacity="0.85"><title>細かい編集 51文字 (2026-06-10T05:50:19.457Z)</title></rect><rect x="376.50" y="102.00" width="11.20" height="148.99" fill="rgb(234,108,0)" fill-opacity="0.85"><title>一括挿入 217文字 (2026-06-10T05:50:19.457Z)</title></rect><rect x="376.50" y="286.00" width="11.20" height="137.31" fill="rgb(198,40,40)" fill-opacity="0.85"><title>削除 200文字 (2026-06-10T05:50:19.457Z)</title></rect><rect x="392.50" y="258.54" width="11.20" height="27.46" fill="rgb(22,128,61)" fill-opacity="0.85"><title>細かい編集 40文字 (2026-06-10T05:55:19.457Z)</title></rect><rect x="392.50" y="286.00" width="11.20" height="2.06" fill="rgb(198,40,40)" fill-opacity="0.85"><title>削除 3文字 (2026-06-10T05:55:19.457Z)</title></rect><rect x="408.50" y="254.42" width="11.20" height="31.58" fill="rgb(22,128,61)" fill-opacity="0.85"><title>細かい編集 46文字 (2026-06-10T06:00:19.457Z)</title></rect><rect x="424.50" y="253.73" width="11.20" height="32.27" fill="rgb(22,128,61)" fill-opacity="0.85"><title>細かい編集 47文字 (2026-06-10T06:05:19.457Z)</title></rect><rect x="424.50" y="286.00" width="11.20" height="24.03" fill="rgb(198,40,40)" fill-opacity="0.85"><title>削除 35文字 (2026-06-10T06:05:19.457Z)</title></rect><rect x="440.50" y="256.48" width="11.20" height="29.52" fill="rgb(22,128,61)" fill-opacity="0.85"><title>細かい編集 43文字 (2026-06-10T06:10:19.457Z)</title></rect><rect x="456.50" y="248.93" width="11.20" height="37.07" fill="rgb(22,128,61)" fill-opacity="0.85"><title>細かい編集 54文字 (2026-06-10T06:15:19.457Z)</title></rect><rect x="472.50" y="257.85" width="11.20" height="28.15" fill="rgb(22,128,61)" fill-opacity="0.85"><title>細かい編集 41文字 (2026-06-10T06:20:19.457Z)</title></rect><rect x="472.50" y="286.00" width="11.20" height="6.87" fill="rgb(198,40,40)" fill-opacity="0.85"><title>削除 10文字 (2026-06-10T06:20:19.457Z)</title></rect><rect x="488.50" y="258.54" width="11.20" height="27.46" fill="rgb(22,128,61)" fill-opacity="0.85"><title>細かい編集 40文字 (2026-06-10T06:25:19.457Z)</title></rect><rect x="488.50" y="286.00" width="11.20" height="89.25" fill="rgb(198,40,40)" fill-opacity="0.85"><title>削除 130文字 (2026-06-10T06:25:19.457Z)</title></rect><rect x="504.50" y="253.73" width="11.20" height="32.27" fill="rgb(22,128,61)" fill-opacity="0.85"><title>細かい編集 47文字 (2026-06-10T06:30:19.457Z)</title></rect><rect x="504.50" y="286.00" width="11.20" height="41.19" fill="rgb(198,40,40)" fill-opacity="0.85"><title>削除 60文字 (2026-06-10T06:30:19.457Z)</title></rect><rect x="520.50" y="259.91" width="11.20" height="26.09" fill="rgb(22,128,61)" fill-opacity="0.85"><title>細かい編集 38文字 (2026-06-10T06:35:19.457Z)</title></rect><rect x="536.50" y="250.99" width="11.20" height="35.01" fill="rgb(22,128,61)" fill-opacity="0.85"><title>細かい編集 51文字 (2026-06-10T06:40:19.457Z)</title></rect><rect x="552.50" y="257.85" width="11.20" height="28.15" fill="rgb(22,128,61)" fill-opacity="0.85"><title>細かい編集 41文字 (2026-06-10T06:45:19.457Z)</title></rect><rect x="568.50" y="258.54" width="11.20" height="27.46" fill="rgb(22,128,61)" fill-opacity="0.85"><title>細かい編集 40文字 (2026-06-10T06:50:19.457Z)</title></rect><rect x="584.50" y="255.10" width="11.20" height="30.90" fill="rgb(22,128,61)" fill-opacity="0.85"><title>細かい編集 45文字 (2026-06-10T06:55:19.457Z)</title></rect><rect x="600.50" y="257.16" width="11.20" height="28.84" fill="rgb(22,128,61)" fill-opacity="0.85"><title>細かい編集 42文字 (2026-06-10T07:00:19.457Z)</title></rect><rect x="616.50" y="259.91" width="11.20" height="26.09" fill="rgb(22,128,61)" fill-opacity="0.85"><title>細かい編集 38文字 (2026-06-10T07:05:19.457Z)</title></rect><rect x="632.50" y="245.49" width="11.20" height="40.51" fill="rgb(22,128,61)" fill-opacity="0.85"><title>細かい編集 59文字 (2026-06-10T07:10:19.457Z)</title></rect><rect x="632.50" y="286.00" width="11.20" height="75.52" fill="rgb(198,40,40)" fill-opacity="0.85"><title>削除 110文字 (2026-06-10T07:10:19.457Z)</title></rect><rect x="648.50" y="250.99" width="11.20" height="35.01" fill="rgb(22,128,61)" fill-opacity="0.85"><title>細かい編集 51文字 (2026-06-10T07:15:19.457Z)</title></rect><rect x="648.50" y="286.00" width="11.20" height="13.04" fill="rgb(198,40,40)" fill-opacity="0.85"><title>削除 19文字 (2026-06-10T07:15:19.457Z)</title></rect><rect x="664.50" y="276.39" width="11.20" height="9.61" fill="rgb(22,128,61)" fill-opacity="0.85"><title>細かい編集 14文字 (2026-06-10T07:20:19.457Z)</title></rect></g><polyline points="382.10,202.42 398.10,198.03 414.10,192.58 430.10,191.16 446.10,186.07 462.10,179.67 478.10,176.00 494.10,186.66 510.10,188.20 526.10,183.70 542.10,177.66 558.10,172.80 574.10,168.06 590.10,162.73 606.10,157.75 622.10,153.25 638.10,159.29 654.10,155.50 670.10,153.84" fill="none" stroke="#424242" stroke-width="2.5"/><g fill="#424242"><circle cx="382.10" cy="202.42" r="2.5"><title>総文字数 2343 (2026-06-10T05:55:19.457Z)</title></circle><circle cx="398.10" cy="198.03" r="2.5"><title>総文字数 2380 (2026-06-10T06:00:19.457Z)</title></circle><circle cx="414.10" cy="192.58" r="2.5"><title>総文字数 2426 (2026-06-10T06:05:19.457Z)</title></circle><circle cx="430.10" cy="191.16" r="2.5"><title>総文字数 2438 (2026-06-10T06:10:19.457Z)</title></circle><circle cx="446.10" cy="186.07" r="2.5"><title>総文字数 2481 (2026-06-10T06:15:19.457Z)</title></circle><circle cx="462.10" cy="179.67" r="2.5"><title>総文字数 2535 (2026-06-10T06:20:19.457Z)</title></circle><circle cx="478.10" cy="176.00" r="2.5"><title>総文字数 2566 (2026-06-10T06:25:19.457Z)</title></circle><circle cx="494.10" cy="186.66" r="2.5"><title>総文字数 2476 (2026-06-10T06:30:19.457Z)</title></circle><circle cx="510.10" cy="188.20" r="2.5"><title>総文字数 2463 (2026-06-10T06:35:19.457Z)</title></circle><circle cx="526.10" cy="183.70" r="2.5"><title>総文字数 2501 (2026-06-10T06:40:19.457Z)</title></circle><circle cx="542.10" cy="177.66" r="2.5"><title>総文字数 2552 (2026-06-10T06:45:19.457Z)</title></circle><circle cx="558.10" cy="172.80" r="2.5"><title>総文字数 2593 (2026-06-10T06:50:19.457Z)</title></circle><circle cx="574.10" cy="168.06" r="2.5"><title>総文字数 2633 (2026-06-10T06:55:19.457Z)</title></circle><circle cx="590.10" cy="162.73" r="2.5"><title>総文字数 2678 (2026-06-10T07:00:19.457Z)</title></circle><circle cx="606.10" cy="157.75" r="2.5"><title>総文字数 2720 (2026-06-10T07:05:19.457Z)</title></circle><circle cx="622.10" cy="153.25" r="2.5"><title>総文字数 2758 (2026-06-10T07:10:19.457Z)</title></circle><circle cx="638.10" cy="159.29" r="2.5"><title>総文字数 2707 (2026-06-10T07:15:19.457Z)</title></circle><circle cx="654.10" cy="155.50" r="2.5"><title>総文字数 2739 (2026-06-10T07:20:19.457Z)</title></circle><circle cx="670.10" cy="153.84" r="2.5"><title>総文字数 2753 (2026-06-10T07:25:19.457Z)</title></circle></g><text x="382.10" y="500.00" font-size="10" fill="#333" text-anchor="middle">14:50</text><text x="462.10" y="500.00" font-size="10" fill="#333" text-anchor="middle">15:15</text><text x="542.10" y="500.00" font-size="10" fill="#333" text-anchor="middle">15:40</text><text x="622.10" y="500.00" font-size="10" fill="#333" text-anchor="middle">16:05</text>
  <text x="815.38" y="66" text-anchor="middle" font-size="12" font-weight="bold" fill="#444">06/11</text><g><rect x="721.78" y="253.73" width="11.20" height="32.27" fill="rgb(22,128,61)" fill-opacity="0.85"><title>細かい編集 47文字 (2026-06-11T00:22:26.366Z)</title></rect><rect x="737.78" y="254.42" width="11.20" height="31.58" fill="rgb(22,128,61)" fill-opacity="0.85"><title>細かい編集 46文字 (2026-06-11T00:27:26.366Z)</title></rect><rect x="753.78" y="264.03" width="11.20" height="21.97" fill="rgb(22,128,61)" fill-opacity="0.85"><title>細かい編集 32文字 (2026-06-11T00:32:26.366Z)</title></rect><rect x="769.78" y="257.16" width="11.20" height="28.84" fill="rgb(22,128,61)" fill-opacity="0.85"><title>細かい編集 42文字 (2026-06-11T00:37:26.366Z)</title></rect><rect x="785.78" y="240.69" width="11.20" height="45.31" fill="rgb(22,128,61)" fill-opacity="0.85"><title>細かい編集 66文字 (2026-06-11T00:42:26.366Z)</title></rect><rect x="801.78" y="255.10" width="11.20" height="30.90" fill="rgb(22,128,61)" fill-opacity="0.85"><title>細かい編集 45文字 (2026-06-11T00:47:26.366Z)</title></rect><rect x="817.78" y="260.60" width="11.20" height="25.40" fill="rgb(22,128,61)" fill-opacity="0.85"><title>細かい編集 37文字 (2026-06-11T00:52:26.366Z)</title></rect><rect x="833.78" y="257.85" width="11.20" height="28.15" fill="rgb(22,128,61)" fill-opacity="0.85"><title>細かい編集 41文字 (2026-06-11T00:57:26.366Z)</title></rect><rect x="849.78" y="254.42" width="11.20" height="31.58" fill="rgb(22,128,61)" fill-opacity="0.85"><title>細かい編集 46文字 (2026-06-11T01:02:26.366Z)</title></rect><rect x="865.78" y="263.34" width="11.20" height="22.66" fill="rgb(22,128,61)" fill-opacity="0.85"><title>細かい編集 33文字 (2026-06-11T01:07:26.366Z)</title></rect><rect x="881.78" y="248.24" width="11.20" height="37.76" fill="rgb(22,128,61)" fill-opacity="0.85"><title>細かい編集 55文字 (2026-06-11T01:12:26.366Z)</title></rect><rect x="897.78" y="264.03" width="11.20" height="21.97" fill="rgb(22,128,61)" fill-opacity="0.85"><title>細かい編集 32文字 (2026-06-11T01:17:26.366Z)</title></rect></g><polyline points="727.38,148.27 743.38,142.83 759.38,139.03 775.38,134.06 791.38,126.24 807.38,120.91 823.38,116.52 839.38,111.67 855.38,106.22 871.38,102.31 887.38,95.79 903.38,92.00" fill="none" stroke="#424242" stroke-width="2.5"/><g fill="#424242"><circle cx="727.38" cy="148.27" r="2.5"><title>総文字数 2800 (2026-06-11T00:27:26.366Z)</title></circle><circle cx="743.38" cy="142.83" r="2.5"><title>総文字数 2846 (2026-06-11T00:32:26.366Z)</title></circle><circle cx="759.38" cy="139.03" r="2.5"><title>総文字数 2878 (2026-06-11T00:37:26.366Z)</title></circle><circle cx="775.38" cy="134.06" r="2.5"><title>総文字数 2920 (2026-06-11T00:42:26.366Z)</title></circle><circle cx="791.38" cy="126.24" r="2.5"><title>総文字数 2986 (2026-06-11T00:47:26.366Z)</title></circle><circle cx="807.38" cy="120.91" r="2.5"><title>総文字数 3031 (2026-06-11T00:52:26.366Z)</title></circle><circle cx="823.38" cy="116.52" r="2.5"><title>総文字数 3068 (2026-06-11T00:57:26.366Z)</title></circle><circle cx="839.38" cy="111.67" r="2.5"><title>総文字数 3109 (2026-06-11T01:02:26.366Z)</title></circle><circle cx="855.38" cy="106.22" r="2.5"><title>総文字数 3155 (2026-06-11T01:07:26.366Z)</title></circle><circle cx="871.38" cy="102.31" r="2.5"><title>総文字数 3188 (2026-06-11T01:12:26.366Z)</title></circle><circle cx="887.38" cy="95.79" r="2.5"><title>総文字数 3243 (2026-06-11T01:17:26.366Z)</title></circle><circle cx="903.38" cy="92.00" r="2.5"><title>総文字数 3275 (2026-06-11T01:22:26.366Z)</title></circle></g><text x="727.38" y="500.00" font-size="10" fill="#333" text-anchor="middle">09:22</text><text x="823.38" y="500.00" font-size="10" fill="#333" text-anchor="middle">09:52</text>

  <text x="20" y="82" font-size="11" fill="#555">文字数(追加/削除)</text>
  <text x="935.38" y="82" font-size="11" fill="#424242" text-anchor="end">総文字数</text>

  <!-- legend -->
  <g transform="translate(70, 528)"><rect x="0" y="-10" width="14" height="14" fill="rgb(22,128,61)" fill-opacity="0.85"/><text x="20" y="1" font-size="12" fill="#333">細かい編集</text><rect x="96" y="-10" width="14" height="14" fill="rgb(234,108,0)" fill-opacity="0.85"/><text x="116" y="1" font-size="12" fill="#333">一括挿入</text><rect x="180" y="-10" width="14" height="14" fill="rgb(198,40,40)" fill-opacity="0.85"/><text x="200" y="1" font-size="12" fill="#333">削除</text><line x1="240" y1="-3" x2="260" y2="-3" stroke="#424242" stroke-width="2.5"/><text x="266" y="1" font-size="12" fill="#333">総文字数</text></g>
</svg>