<svg xmlns="http://www.w3.org/2000/svg" width="1660.2" height="550" viewBox="0 0 1660.2 550" font-family="'Noto Sans CJK JP', 'Noto Sans JP', 'Yu Gothic', 'Hiragino Sans', Meiryo, 'MS PGothic', 'Helvetica Neue', Arial, sans-serif">
  <rect width="100%" height="100%" fill="#ffffff"/>
  <text x="830.1" y="28" text-anchor="middle" font-size="18" font-weight="bold" fill="#1a1a1a">編集履歴: multi-session.docx</text>
  <text x="830.1" y="48" text-anchor="middle" font-size="12" fill="#777">(12時間以上更新が無い期間で区切って表示)</text>

  <line x1="70.00" y1="279" x2="678.00" y2="279" stroke="#333" stroke-width="1"/>
  <line x1="719.28" y1="279" x2="1023.28" y2="279" stroke="#333" stroke-width="1"/>
  <line x1="1078.20" y1="279" x2="1590.20" y2="279" stroke="#333" stroke-width="1"/>

  <line x1="65" y1="470.00" x2="70" y2="470.00" stroke="#999"/>
  <text x="60" y="474.00" font-size="10" fill="#555" text-anchor="end">10</text>
  <line x1="65" y1="422.25" x2="70" y2="422.25" stroke="#999"/>
  <text x="60" y="426.25" font-size="10" fill="#555" text-anchor="end">8</text>
  <line x1="65" y1="374.50" x2="70" y2="374.50" stroke="#999"/>
  <text x="60" y="378.50" font-size="10" fill="#555" text-anchor="end">5</text>
  <line x1="65" y1="326.75" x2="70" y2="326.75" stroke="#999"/>
  <text x="60" y="330.75" font-size="10" fill="#555" text-anchor="end">3</text>
  <line x1="65" y1="279.00" x2="70" y2="279.00" stroke="#999"/>
  <text x="60" y="283.00" font-size="10" fill="#555" text-anchor="end">0</text>
  <line x1="65" y1="231.25" x2="70" y2="231.25" stroke="#999"/>
  <text x="60" y="235.25" font-size="10" fill="#555" text-anchor="end">3</text>
  <line x1="65" y1="183.50" x2="70" y2="183.50" stroke="#999"/>
  <text x="60" y="187.50" font-size="10" fill="#555" text-anchor="end">5</text>
  <line x1="65" y1="135.75" x2="70" y2="135.75" stroke="#999"/>
  <text x="60" y="139.75" font-size="10" fill="#555" text-anchor="end">8</text>
  <line x1="65" y1="88.00" x2="70" y2="88.00" stroke="#999"/>
  <text x="60" y="92.00" font-size="10" fill="#555" text-anchor="end">10</text>
  <line x1="1590.20" y1="480.00" x2="1595.20" y2="480.00" stroke="#1565c0"/>
  <text x="1600.20" y="484.00" font-size="10" fill="#1565c0" text-anchor="start">0</text>
  <line x1="1590.20" y1="379.50" x2="1595.20" y2="379.50" stroke="#1565c0"/>
  <text x="1600.20" y="383.50" font-size="10" fill="#1565c0" text-anchor="start">53</text>
  <line x1="1590.20" y1="279.00" x2="1595.20" y2="279.00" stroke="#1565c0"/>
  <text x="1600.20" y="283.00" font-size="10" fill="#1565c0" text-anchor="start">106</text>
  <line x1="1590.20" y1="178.50" x2="1595.20" y2="178.50" stroke="#1565c0"/>
  <text x="1600.20" y="182.50" font-size="10" fill="#1565c0" text-anchor="start">159</text>
  <line x1="1590.20" y1="78.00" x2="1595.20" y2="78.00" stroke="#1565c0"/>
  <text x="1600.20" y="82.00" font-size="10" fill="#1565c0" text-anchor="start">212</text>
  <line x1="678.00" y1="78" x2="678.00" y2="480.00" stroke="#bbb" stroke-dasharray="2,3"/>
  <line x1="719.28" y1="78" x2="719.28" y2="480.00" stroke="#bbb" stroke-dasharray="2,3"/>
  <rect x="682.00" y="271.00" width="33.28" height="16" fill="#ffffff" fill-opacity="0.85"/>
  <text x="698.64" y="283.00" font-size="11" fill="#777" text-anchor="middle">29 h</text>
  <line x1="1023.28" y1="78" x2="1023.28" y2="480.00" stroke="#bbb" stroke-dasharray="2,3"/>
  <line x1="1078.20" y1="78" x2="1078.20" y2="480.00" stroke="#bbb" stroke-dasharray="2,3"/>
  <rect x="1027.28" y="271.00" width="46.92" height="16" fill="#ffffff" fill-opacity="0.85"/>
  <text x="1050.74" y="283.00" font-size="11" fill="#777" text-anchor="middle">20.5 h</text>

  <g><rect x="72.40" y="183.50" width="11.20" height="95.50" fill="#2e7d32" fill-opacity="0.85"><title>追加 5文字 (2026-06-01T09:00:30.627Z)</title></rect><rect x="168.40" y="183.50" width="11.20" height="95.50" fill="#2e7d32" fill-opacity="0.85"><title>追加 5文字 (2026-06-01T09:01:30.627Z)</title></rect><rect x="248.40" y="164.40" width="11.20" height="114.60" fill="#2e7d32" fill-opacity="0.85"><title>追加 6文字 (2026-06-01T09:02:20.627Z)</title></rect><rect x="328.40" y="126.20" width="11.20" height="152.80" fill="#2e7d32" fill-opacity="0.85"><title>追加 8文字 (2026-06-01T09:03:10.627Z)</title></rect><rect x="360.40" y="183.50" width="11.20" height="95.50" fill="#2e7d32" fill-opacity="0.85"><title>追加 5文字 (2026-06-01T09:03:30.627Z)</title></rect><rect x="456.40" y="183.50" width="11.20" height="95.50" fill="#2e7d32" fill-opacity="0.85"><title>追加 5文字 (2026-06-01T09:04:30.627Z)</title></rect><rect x="488.40" y="183.50" width="11.20" height="95.50" fill="#2e7d32" fill-opacity="0.85"><title>追加 5文字 (2026-06-01T09:04:50.627Z)</title></rect><rect x="520.40" y="107.10" width="11.20" height="171.90" fill="#2e7d32" fill-opacity="0.85"><title>追加 9文字 (2026-06-01T09:05:10.627Z)</title></rect><rect x="584.40" y="107.10" width="11.20" height="171.90" fill="#2e7d32" fill-opacity="0.85"><title>追加 9文字 (2026-06-01T09:05:50.627Z)</title></rect><rect x="664.40" y="126.20" width="11.20" height="152.80" fill="#2e7d32" fill-opacity="0.85"><title>追加 8文字 (2026-06-01T09:06:40.627Z)</title></rect></g><polyline points="78.00,470.52 94.00,470.52 110.00,470.52 126.00,470.52 142.00,470.52 158.00,470.52 174.00,461.04 190.00,461.04 206.00,461.04 222.00,461.04 238.00,461.04 254.00,449.66 270.00,449.66 286.00,449.66 302.00,449.66 318.00,449.66 334.00,434.49 350.00,434.49 366.00,425.01 382.00,425.01 398.00,425.01 414.00,425.01 430.00,425.01 446.00,425.01 462.00,415.53 478.00,415.53 494.00,406.05 510.00,406.05 526.00,388.98 542.00,388.98 558.00,388.98 574.00,388.98 590.00,371.92 606.00,371.92 622.00,371.92 638.00,371.92 654.00,371.92 670.00,356.75" fill="none" stroke="#1565c0" stroke-width="2.5"/><g fill="#1565c0"><circle cx="78.00" cy="470.52" r="2.5"><title>総文字数 5 (2026-06-01T09:00:40.627Z)</title></circle><circle cx="94.00" cy="470.52" r="2.5"><title>総文字数 5 (2026-06-01T09:00:50.627Z)</title></circle><circle cx="110.00" cy="470.52" r="2.5"><title>総文字数 5 (2026-06-01T09:01:00.627Z)</title></circle><circle cx="126.00" cy="470.52" r="2.5"><title>総文字数 5 (2026-06-01T09:01:10.627Z)</title></circle><circle cx="142.00" cy="470.52" r="2.5"><title>総文字数 5 (2026-06-01T09:01:20.627Z)</title></circle><circle cx="158.00" cy="470.52" r="2.5"><title>総文字数 5 (2026-06-01T09:01:30.627Z)</title></circle><circle cx="174.00" cy="461.04" r="2.5"><title>総文字数 10 (2026-06-01T09:01:40.627Z)</title></circle><circle cx="190.00" cy="461.04" r="2.5"><title>総文字数 10 (2026-06-01T09:01:50.627Z)</title></circle><circle cx="206.00" cy="461.04" r="2.5"><title>総文字数 10 (2026-06-01T09:02:00.627Z)</title></circle><circle cx="222.00" cy="461.04" r="2.5"><title>総文字数 10 (2026-06-01T09:02:10.627Z)</title></circle><circle cx="238.00" cy="461.04" r="2.5"><title>総文字数 10 (2026-06-01T09:02:20.627Z)</title></circle><circle cx="254.00" cy="449.66" r="2.5"><title>総文字数 16 (2026-06-01T09:02:30.627Z)</title></circle><circle cx="270.00" cy="449.66" r="2.5"><title>総文字数 16 (2026-06-01T09:02:40.627Z)</title></circle><circle cx="286.00" cy="449.66" r="2.5"><title>総文字数 16 (2026-06-01T09:02:50.627Z)</title></circle><circle cx="302.00" cy="449.66" r="2.5"><title>総文字数 16 (2026-06-01T09:03:00.627Z)</title></circle><circle cx="318.00" cy="449.66" r="2.5"><title>総文字数 16 (2026-06-01T09:03:10.627Z)</title></circle><circle cx="334.00" cy="434.49" r="2.5"><title>総文字数 24 (2026-06-01T09:03:20.627Z)</title></circle><circle cx="350.00" cy="434.49" r="2.5"><title>総文字数 24 (2026-06-01T09:03:30.627Z)</title></circle><circle cx="366.00" cy="425.01" r="2.5"><title>総文字数 29 (2026-06-01T09:03:40.627Z)</title></circle><circle cx="382.00" cy="425.01" r="2.5"><title>総文字数 29 (2026-06-01T09:03:50.627Z)</title></circle><circle cx="398.00" cy="425.01" r="2.5"><title>総文字数 29 (2026-06-01T09:04:00.627Z)</title></circle><circle cx="414.00" cy="425.01" r="2.5"><title>総文字数 29 (2026-06-01T09:04:10.627Z)</title></circle><circle cx="430.00" cy="425.01" r="2.5"><title>総文字数 29 (2026-06-01T09:04:20.627Z)</title></circle><circle cx="446.00" cy="425.01" r="2.5"><title>総文字数 29 (2026-06-01T09:04:30.627Z)</title></circle><circle cx="462.00" cy="415.53" r="2.5"><title>総文字数 34 (2026-06-01T09:04:40.627Z)</title></circle><circle cx="478.00" cy="415.53" r="2.5"><title>総文字数 34 (2026-06-01T09:04:50.627Z)</title></circle><circle cx="494.00" cy="406.05" r="2.5"><title>総文字数 39 (2026-06-01T09:05:00.627Z)</title></circle><circle cx="510.00" cy="406.05" r="2.5"><title>総文字数 39 (2026-06-01T09:05:10.627Z)</title></circle><circle cx="526.00" cy="388.98" r="2.5"><title>総文字数 48 (2026-06-01T09:05:20.627Z)</title></circle><circle cx="542.00" cy="388.98" r="2.5"><title>総文字数 48 (2026-06-01T09:05:30.627Z)</title></circle><circle cx="558.00" cy="388.98" r="2.5"><title>総文字数 48 (2026-06-01T09:05:40.627Z)</title></circle><circle cx="574.00" cy="388.98" r="2.5"><title>総文字数 48 (2026-06-01T09:05:50.627Z)</title></circle><circle cx="590.00" cy="371.92" r="2.5"><title>総文字数 57 (2026-06-01T09:06:00.627Z)</title></circle><circle cx="606.00" cy="371.92" r="2.5"><title>総文字数 57 (2026-06-01T09:06:10.627Z)</title></circle><circle cx="622.00" cy="371.92" r="2.5"><title>総文字数 57 (2026-06-01T09:06:20.627Z)</title></circle><circle cx="638.00" cy="371.92" r="2.5"><title>総文字数 57 (2026-06-01T09:06:30.627Z)</title></circle><circle cx="654.00" cy="371.92" r="2.5"><title>総文字数 57 (2026-06-01T09:06:40.627Z)</title></circle><circle cx="670.00" cy="356.75" r="2.5"><title>総文字数 65 (2026-06-01T09:06:50.627Z)</title></circle></g><text x="78.00" y="500.00" font-size="10" fill="#333" text-anchor="middle">09:00</text><text x="158.00" y="500.00" font-size="10" fill="#333" text-anchor="middle">09:01</text><text x="238.00" y="500.00" font-size="10" fill="#333" text-anchor="middle">09:02</text><text x="318.00" y="500.00" font-size="10" fill="#333" text-anchor="middle">09:03</text><text x="398.00" y="500.00" font-size="10" fill="#333" text-anchor="middle">09:03</text><text x="478.00" y="500.00" font-size="10" fill="#333" text-anchor="middle">09:04</text><text x="558.00" y="500.00" font-size="10" fill="#333" text-anchor="middle">09:05</text><text x="638.00" y="500.00" font-size="10" fill="#333" text-anchor="middle">09:06</text>
  <g><rect x="721.68" y="88.00" width="11.20" height="191.00" fill="#2e7d32" fill-opacity="0.85"><title>追加 10文字 (2026-06-02T14:07:24.930Z)</title></rect><rect x="737.68" y="107.10" width="11.20" height="171.90" fill="#2e7d32" fill-opacity="0.85"><title>追加 9文字 (2026-06-02T14:07:54.930Z)</title></rect><rect x="769.68" y="107.10" width="11.20" height="171.90" fill="#2e7d32" fill-opacity="0.85"><title>追加 9文字 (2026-06-02T14:08:54.930Z)</title></rect><rect x="785.68" y="126.20" width="11.20" height="152.80" fill="#2e7d32" fill-opacity="0.85"><title>追加 8文字 (2026-06-02T14:09:24.930Z)</title></rect><rect x="801.68" y="126.20" width="11.20" height="152.80" fill="#2e7d32" fill-opacity="0.85"><title>追加 8文字 (2026-06-02T14:09:54.930Z)</title></rect><rect x="833.68" y="126.20" width="11.20" height="152.80" fill="#2e7d32" fill-opacity="0.85"><title>追加 8文字 (2026-06-02T14:10:54.930Z)</title></rect><rect x="865.68" y="164.40" width="11.20" height="114.60" fill="#2e7d32" fill-opacity="0.85"><title>追加 6文字 (2026-06-02T14:11:54.930Z)</title></rect><rect x="881.68" y="221.70" width="11.20" height="57.30" fill="#2e7d32" fill-opacity="0.85"><title>追加 3文字 (2026-06-02T14:12:24.930Z)</title></rect><rect x="897.68" y="164.40" width="11.20" height="114.60" fill="#2e7d32" fill-opacity="0.85"><title>追加 6文字 (2026-06-02T14:12:54.930Z)</title></rect><rect x="929.68" y="164.40" width="11.20" height="114.60" fill="#2e7d32" fill-opacity="0.85"><title>追加 6文字 (2026-06-02T14:13:54.930Z)</title></rect><rect x="961.68" y="126.20" width="11.20" height="152.80" fill="#2e7d32" fill-opacity="0.85"><title>追加 8文字 (2026-06-02T14:14:54.930Z)</title></rect><rect x="977.68" y="107.10" width="11.20" height="171.90" fill="#2e7d32" fill-opacity="0.85"><title>追加 9文字 (2026-06-02T14:15:24.930Z)</title></rect><rect x="1009.68" y="221.70" width="11.20" height="57.30" fill="#2e7d32" fill-opacity="0.85"><title>追加 3文字 (2026-06-02T14:16:24.930Z)</title></rect></g><polyline points="727.28,337.78 743.28,320.72 759.28,320.72 775.28,303.65 791.28,288.48 807.28,273.31 823.28,273.31 839.28,258.14 855.28,258.14 871.28,246.76 887.28,241.08 903.28,229.70 919.28,229.70 935.28,218.32 951.28,218.32 967.28,203.15 983.28,186.08 999.28,186.08 1015.28,180.40" fill="none" stroke="#1565c0" stroke-width="2.5"/><g fill="#1565c0"><circle cx="727.28" cy="337.78" r="2.5"><title>総文字数 75 (2026-06-02T14:07:54.930Z)</title></circle><circle cx="743.28" cy="320.72" r="2.5"><title>総文字数 84 (2026-06-02T14:08:24.930Z)</title></circle><circle cx="759.28" cy="320.72" r="2.5"><title>総文字数 84 (2026-06-02T14:08:54.930Z)</title></circle><circle cx="775.28" cy="303.65" r="2.5"><title>総文字数 93 (2026-06-02T14:09:24.930Z)</title></circle><circle cx="791.28" cy="288.48" r="2.5"><title>総文字数 101 (2026-06-02T14:09:54.930Z)</title></circle><circle cx="807.28" cy="273.31" r="2.5"><title>総文字数 109 (2026-06-02T14:10:24.930Z)</title></circle><circle cx="823.28" cy="273.31" r="2.5"><title>総文字数 109 (2026-06-02T14:10:54.930Z)</title></circle><circle cx="839.28" cy="258.14" r="2.5"><title>総文字数 117 (2026-06-02T14:11:24.930Z)</title></circle><circle cx="855.28" cy="258.14" r="2.5"><title>総文字数 117 (2026-06-02T14:11:54.930Z)</title></circle><circle cx="871.28" cy="246.76" r="2.5"><title>総文字数 123 (2026-06-02T14:12:24.930Z)</title></circle><circle cx="887.28" cy="241.08" r="2.5"><title>総文字数 126 (2026-06-02T14:12:54.930Z)</title></circle><circle cx="903.28" cy="229.70" r="2.5"><title>総文字数 132 (2026-06-02T14:13:24.930Z)</title></circle><circle cx="919.28" cy="229.70" r="2.5"><title>総文字数 132 (2026-06-02T14:13:54.930Z)</title></circle><circle cx="935.28" cy="218.32" r="2.5"><title>総文字数 138 (2026-06-02T14:14:24.930Z)</title></circle><circle cx="951.28" cy="218.32" r="2.5"><title>総文字数 138 (2026-06-02T14:14:54.930Z)</title></circle><circle cx="967.28" cy="203.15" r="2.5"><title>総文字数 146 (2026-06-02T14:15:24.930Z)</title></circle><circle cx="983.28" cy="186.08" r="2.5"><title>総文字数 155 (2026-06-02T14:15:54.930Z)</title></circle><circle cx="999.28" cy="186.08" r="2.5"><title>総文字数 155 (2026-06-02T14:16:24.930Z)</title></circle><circle cx="1015.28" cy="180.40" r="2.5"><title>総文字数 158 (2026-06-02T14:16:54.930Z)</title></circle></g><text x="727.28" y="500.00" font-size="10" fill="#333" text-anchor="middle">14:07</text><text x="807.28" y="500.00" font-size="10" fill="#333" text-anchor="middle">14:09</text><text x="887.28" y="500.00" font-size="10" fill="#333" text-anchor="middle">14:12</text><text x="967.28" y="500.00" font-size="10" fill="#333" text-anchor="middle">14:14</text>
  <g><rect x="1080.60" y="126.20" width="11.20" height="152.80" fill="#2e7d32" fill-opacity="0.85"><title>追加 8文字 (2026-06-03T10:47:55.161Z)</title></rect><rect x="1144.60" y="126.20" width="11.20" height="152.80" fill="#2e7d32" fill-opacity="0.85"><title>追加 8文字 (2026-06-03T10:48:35.161Z)</title></rect><rect x="1192.60" y="164.40" width="11.20" height="114.60" fill="#2e7d32" fill-opacity="0.85"><title>追加 6文字 (2026-06-03T10:49:05.161Z)</title></rect><rect x="1304.60" y="221.70" width="11.20" height="57.30" fill="#2e7d32" fill-opacity="0.85"><title>追加 3文字 (2026-06-03T10:50:15.161Z)</title></rect><rect x="1352.60" y="164.40" width="11.20" height="114.60" fill="#2e7d32" fill-opacity="0.85"><title>追加 6文字 (2026-06-03T10:50:45.161Z)</title></rect><rect x="1416.60" y="164.40" width="11.20" height="114.60" fill="#2e7d32" fill-opacity="0.85"><title>追加 6文字 (2026-06-03T10:51:25.161Z)</title></rect><rect x="1512.60" y="126.20" width="11.20" height="152.80" fill="#2e7d32" fill-opacity="0.85"><title>追加 8文字 (2026-06-03T10:52:25.161Z)</title></rect><rect x="1576.60" y="107.10" width="11.20" height="171.90" fill="#2e7d32" fill-opacity="0.85"><title>追加 9文字 (2026-06-03T10:53:05.161Z)</title></rect></g><polyline points="1086.20,165.23 1102.20,165.23 1118.20,165.23 1134.20,165.23 1150.20,150.06 1166.20,150.06 1182.20,150.06 1198.20,138.68 1214.20,138.68 1230.20,138.68 1246.20,138.68 1262.20,138.68 1278.20,138.68 1294.20,138.68 1310.20,132.99 1326.20,132.99 1342.20,132.99 1358.20,121.61 1374.20,121.61 1390.20,121.61 1406.20,121.61 1422.20,110.24 1438.20,110.24 1454.20,110.24 1470.20,110.24 1486.20,110.24 1502.20,110.24 1518.20,95.07 1534.20,95.07 1550.20,95.07 1566.20,95.07 1582.20,78.00" fill="none" stroke="#1565c0" stroke-width="2.5"/><g fill="#1565c0"><circle cx="1086.20" cy="165.23" r="2.5"><title>総文字数 166 (2026-06-03T10:48:05.161Z)</title></circle><circle cx="1102.20" cy="165.23" r="2.5"><title>総文字数 166 (2026-06-03T10:48:15.161Z)</title></circle><circle cx="1118.20" cy="165.23" r="2.5"><title>総文字数 166 (2026-06-03T10:48:25.161Z)</title></circle><circle cx="1134.20" cy="165.23" r="2.5"><title>総文字数 166 (2026-06-03T10:48:35.161Z)</title></circle><circle cx="1150.20" cy="150.06" r="2.5"><title>総文字数 174 (2026-06-03T10:48:45.161Z)</title></circle><circle cx="1166.20" cy="150.06" r="2.5"><title>総文字数 174 (2026-06-03T10:48:55.161Z)</title></circle><circle cx="1182.20" cy="150.06" r="2.5"><title>総文字数 174 (2026-06-03T10:49:05.161Z)</title></circle><circle cx="1198.20" cy="138.68" r="2.5"><title>総文字数 180 (2026-06-03T10:49:15.161Z)</title></circle><circle cx="1214.20" cy="138.68" r="2.5"><title>総文字数 180 (2026-06-03T10:49:25.161Z)</title></circle><circle cx="1230.20" cy="138.68" r="2.5"><title>総文字数 180 (2026-06-03T10:49:35.161Z)</title></circle><circle cx="1246.20" cy="138.68" r="2.5"><title>総文字数 180 (2026-06-03T10:49:45.161Z)</title></circle><circle cx="1262.20" cy="138.68" r="2.5"><title>総文字数 180 (2026-06-03T10:49:55.161Z)</title></circle><circle cx="1278.20" cy="138.68" r="2.5"><title>総文字数 180 (2026-06-03T10:50:05.161Z)</title></circle><circle cx="1294.20" cy="138.68" r="2.5"><title>総文字数 180 (2026-06-03T10:50:15.161Z)</title></circle><circle cx="1310.20" cy="132.99" r="2.5"><title>総文字数 183 (2026-06-03T10:50:25.161Z)</title></circle><circle cx="1326.20" cy="132.99" r="2.5"><title>総文字数 183 (2026-06-03T10:50:35.161Z)</title></circle><circle cx="1342.20" cy="132.99" r="2.5"><title>総文字数 183 (2026-06-03T10:50:45.161Z)</title></circle><circle cx="1358.20" cy="121.61" r="2.5"><title>総文字数 189 (2026-06-03T10:50:55.161Z)</title></circle><circle cx="1374.20" cy="121.61" r="2.5"><title>総文字数 189 (2026-06-03T10:51:05.161Z)</title></circle><circle cx="1390.20" cy="121.61" r="2.5"><title>総文字数 189 (2026-06-03T10:51:15.161Z)</title></circle><circle cx="1406.20" cy="121.61" r="2.5"><title>総文字数 189 (2026-06-03T10:51:25.161Z)</title></circle><circle cx="1422.20" cy="110.24" r="2.5"><title>総文字数 195 (2026-06-03T10:51:35.161Z)</title></circle><circle cx="1438.20" cy="110.24" r="2.5"><title>総文字数 195 (2026-06-03T10:51:45.161Z)</title></circle><circle cx="1454.20" cy="110.24" r="2.5"><title>総文字数 195 (2026-06-03T10:51:55.161Z)</title></circle><circle cx="1470.20" cy="110.24" r="2.5"><title>総文字数 195 (2026-06-03T10:52:05.161Z)</title></circle><circle cx="1486.20" cy="110.24" r="2.5"><title>総文字数 195 (2026-06-03T10:52:15.161Z)</title></circle><circle cx="1502.20" cy="110.24" r="2.5"><title>総文字数 195 (2026-06-03T10:52:25.161Z)</title></circle><circle cx="1518.20" cy="95.07" r="2.5"><title>総文字数 203 (2026-06-03T10:52:35.161Z)</title></circle><circle cx="1534.20" cy="95.07" r="2.5"><title>総文字数 203 (2026-06-03T10:52:45.161Z)</title></circle><circle cx="1550.20" cy="95.07" r="2.5"><title>総文字数 203 (2026-06-03T10:52:55.161Z)</title></circle><circle cx="1566.20" cy="95.07" r="2.5"><title>総文字数 203 (2026-06-03T10:53:05.161Z)</title></circle><circle cx="1582.20" cy="78.00" r="2.5"><title>総文字数 212 (2026-06-03T10:53:15.161Z)</title></circle></g><text x="1086.20" y="500.00" font-size="10" fill="#333" text-anchor="middle">10:47</text><text x="1166.20" y="500.00" font-size="10" fill="#333" text-anchor="middle">10:48</text><text x="1246.20" y="500.00" font-size="10" fill="#333" text-anchor="middle">10:49</text><text x="1326.20" y="500.00" font-size="10" fill="#333" text-anchor="middle">10:50</text><text x="1406.20" y="500.00" font-size="10" fill="#333" text-anchor="middle">10:51</text><text x="1486.20" y="500.00" font-size="10" fill="#333" text-anchor="middle">10:52</text><text x="1566.20" y="500.00" font-size="10" fill="#333" text-anchor="middle">10:52</text>

  <text x="20" y="68" font-size="11" fill="#555">文字数(追加/削除)</text>
  <text x="1570.2" y="68" font-size="11" fill="#1565c0">総文字数</text>

  <!-- 凡例 -->
  <g transform="translate(70, 528)">
    <rect x="0" y="-10" width="14" height="14" fill="#2e7d32" fill-opacity="0.85"/>
    <text x="20" y="1" font-size="12" fill="#333">追加</text>
    <rect x="70" y="-10" width="14" height="14" fill="#c62828" fill-opacity="0.85"/>
    <text x="90" y="1" font-size="12" fill="#333">削除</text>
    <line x1="140" y1="-3" x2="160" y2="-3" stroke="#1565c0" stroke-width="2.5"/>
    <text x="166" y="1" font-size="12" fill="#333">総文字数</text>
  </g>
</svg>