<svg xmlns="http://www.w3.org/2000/svg" width="1100" height="550" viewBox="0 0 1100 550" font-family="'Noto Sans CJK JP', 'Noto Sans JP', 'Yu Gothic', 'Hiragino Sans', Meiryo, 'MS PGothic', 'Helvetica Neue', Arial, sans-serif">
  <rect width="100%" height="100%" fill="#ffffff"/>
  <text x="550" y="28" text-anchor="middle" font-size="18" font-weight="bold" fill="#1a1a1a">編集履歴: suspicious-paste.docx</text>

  <!-- ゼロ軸 -->
  <line x1="70" y1="270" x2="1030" y2="270" stroke="#333" stroke-width="1"/>
  <!-- プロット枠 -->
  <line x1="70" y1="60" x2="70" y2="480" stroke="#333" stroke-width="1"/>
  <line x1="1030" y1="60" x2="1030" y2="480" stroke="#ccd7e6" stroke-width="1"/>

  <line x1="65" y1="470.00" x2="70" y2="470.00" stroke="#999"/>
  <text x="60" y="474.00" font-size="10" fill="#555" text-anchor="end">300</text>
  <line x1="65" y1="420.00" x2="70" y2="420.00" stroke="#999"/>
  <text x="60" y="424.00" font-size="10" fill="#555" text-anchor="end">225</text>
  <line x1="65" y1="370.00" x2="70" y2="370.00" stroke="#999"/>
  <text x="60" y="374.00" font-size="10" fill="#555" text-anchor="end">150</text>
  <line x1="65" y1="320.00" x2="70" y2="320.00" stroke="#999"/>
  <text x="60" y="324.00" font-size="10" fill="#555" text-anchor="end">75</text>
  <line x1="65" y1="270.00" x2="70" y2="270.00" stroke="#999"/>
  <text x="60" y="274.00" font-size="10" fill="#555" text-anchor="end">0</text>
  <line x1="65" y1="220.00" x2="70" y2="220.00" stroke="#999"/>
  <text x="60" y="224.00" font-size="10" fill="#555" text-anchor="end">75</text>
  <line x1="65" y1="170.00" x2="70" y2="170.00" stroke="#999"/>
  <text x="60" y="174.00" font-size="10" fill="#555" text-anchor="end">150</text>
  <line x1="65" y1="120.00" x2="70" y2="120.00" stroke="#999"/>
  <text x="60" y="124.00" font-size="10" fill="#555" text-anchor="end">225</text>
  <line x1="65" y1="70.00" x2="70" y2="70.00" stroke="#999"/>
  <text x="60" y="74.00" font-size="10" fill="#555" text-anchor="end">300</text>
  <line x1="1030.00" y1="480.00" x2="1035.00" y2="480.00" stroke="#1565c0"/>
  <text x="1040.00" y="484.00" font-size="10" fill="#1565c0" text-anchor="start">0</text>
  <line x1="1030.00" y1="375.00" x2="1035.00" y2="375.00" stroke="#1565c0"/>
  <text x="1040.00" y="379.00" font-size="10" fill="#1565c0" text-anchor="start">90</text>
  <line x1="1030.00" y1="270.00" x2="1035.00" y2="270.00" stroke="#1565c0"/>
  <text x="1040.00" y="274.00" font-size="10" fill="#1565c0" text-anchor="start">180</text>
  <line x1="1030.00" y1="165.00" x2="1035.00" y2="165.00" stroke="#1565c0"/>
  <text x="1040.00" y="169.00" font-size="10" fill="#1565c0" text-anchor="start">270</text>
  <line x1="1030.00" y1="60.00" x2="1035.00" y2="60.00" stroke="#1565c0"/>
  <text x="1040.00" y="64.00" font-size="10" fill="#1565c0" text-anchor="start">360</text>
  <text x="84.12" y="500.00" font-size="11" fill="#333" text-anchor="middle">14:00</text>
  <text x="197.06" y="500.00" font-size="11" fill="#333" text-anchor="middle">14:00</text>
  <text x="310.00" y="500.00" font-size="11" fill="#333" text-anchor="middle">14:01</text>
  <text x="422.94" y="500.00" font-size="11" fill="#333" text-anchor="middle">14:02</text>
  <text x="535.88" y="500.00" font-size="11" fill="#333" text-anchor="middle">14:02</text>
  <text x="648.82" y="500.00" font-size="11" fill="#333" text-anchor="middle">14:03</text>
  <text x="761.76" y="500.00" font-size="11" fill="#333" text-anchor="middle">14:04</text>
  <text x="874.71" y="500.00" font-size="11" fill="#333" text-anchor="middle">14:04</text>
  <text x="987.65" y="500.00" font-size="11" fill="#333" text-anchor="middle">14:05</text>

  <g><rect x="74.24" y="266.67" width="19.76" height="3.33" fill="#2e7d32" fill-opacity="0.85"><title>追加 5文字 (2026-05-11T14:00:15.292Z)</title></rect>
  <rect x="102.47" y="266.67" width="19.76" height="3.33" fill="#2e7d32" fill-opacity="0.85"><title>追加 5文字 (2026-05-11T14:00:25.292Z)</title></rect>
  <rect x="215.41" y="266.00" width="19.76" height="4.00" fill="#2e7d32" fill-opacity="0.85"><title>追加 6文字 (2026-05-11T14:01:05.292Z)</title></rect>
  <rect x="300.12" y="264.67" width="19.76" height="5.33" fill="#2e7d32" fill-opacity="0.85"><title>追加 8文字 (2026-05-11T14:01:35.292Z)</title></rect>
  <rect x="384.82" y="266.67" width="19.76" height="3.33" fill="#2e7d32" fill-opacity="0.85"><title>追加 5文字 (2026-05-11T14:02:05.292Z)</title></rect>
  <rect x="469.53" y="70.00" width="19.76" height="200.00" fill="#2e7d32" fill-opacity="0.85"><title>追加 300文字 (2026-05-11T14:02:35.292Z)</title></rect>
  <rect x="582.47" y="264.67" width="19.76" height="5.33" fill="#2e7d32" fill-opacity="0.85"><title>追加 8文字 (2026-05-11T14:03:15.292Z)</title></rect>
  <rect x="667.18" y="264.67" width="19.76" height="5.33" fill="#2e7d32" fill-opacity="0.85"><title>追加 8文字 (2026-05-11T14:03:45.292Z)</title></rect>
  <rect x="780.12" y="266.00" width="19.76" height="4.00" fill="#2e7d32" fill-opacity="0.85"><title>追加 6文字 (2026-05-11T14:04:25.292Z)</title></rect>
  <rect x="921.29" y="268.00" width="19.76" height="2.00" fill="#2e7d32" fill-opacity="0.85"><title>追加 3文字 (2026-05-11T14:05:15.292Z)</title></rect>
  <rect x="1006.00" y="266.00" width="19.76" height="4.00" fill="#2e7d32" fill-opacity="0.85"><title>追加 6文字 (2026-05-11T14:05:45.292Z)</title></rect></g>

  <polyline points="84.12,474.17 112.35,468.33 140.59,468.33 168.82,468.33 197.06,468.33 225.29,461.33 253.53,461.33 281.76,461.33 310.00,452.00 338.24,452.00 366.47,452.00 394.71,446.17 422.94,446.17 451.18,446.17 479.41,96.17 507.65,96.17 535.88,96.17 564.12,96.17 592.35,86.83 620.59,86.83 648.82,86.83 677.06,77.50 705.29,77.50 733.53,77.50 761.76,77.50 790.00,70.50 818.24,70.50 846.47,70.50 874.71,70.50 902.94,70.50 931.18,67.00 959.41,67.00 987.65,67.00 1015.88,60.00" fill="none" stroke="#1565c0" stroke-width="2.5"/>
  <g fill="#1565c0"><circle cx="84.12" cy="474.17" r="2.5"><title>総文字数 5 (2026-05-11T14:00:25.292Z)</title></circle><circle cx="112.35" cy="468.33" r="2.5"><title>総文字数 10 (2026-05-11T14:00:35.292Z)</title></circle><circle cx="140.59" cy="468.33" r="2.5"><title>総文字数 10 (2026-05-11T14:00:45.292Z)</title></circle><circle cx="168.82" cy="468.33" r="2.5"><title>総文字数 10 (2026-05-11T14:00:55.292Z)</title></circle><circle cx="197.06" cy="468.33" r="2.5"><title>総文字数 10 (2026-05-11T14:01:05.292Z)</title></circle><circle cx="225.29" cy="461.33" r="2.5"><title>総文字数 16 (2026-05-11T14:01:15.292Z)</title></circle><circle cx="253.53" cy="461.33" r="2.5"><title>総文字数 16 (2026-05-11T14:01:25.292Z)</title></circle><circle cx="281.76" cy="461.33" r="2.5"><title>総文字数 16 (2026-05-11T14:01:35.292Z)</title></circle><circle cx="310.00" cy="452.00" r="2.5"><title>総文字数 24 (2026-05-11T14:01:45.292Z)</title></circle><circle cx="338.24" cy="452.00" r="2.5"><title>総文字数 24 (2026-05-11T14:01:55.292Z)</title></circle><circle cx="366.47" cy="452.00" r="2.5"><title>総文字数 24 (2026-05-11T14:02:05.292Z)</title></circle><circle cx="394.71" cy="446.17" r="2.5"><title>総文字数 29 (2026-05-11T14:02:15.292Z)</title></circle><circle cx="422.94" cy="446.17" r="2.5"><title>総文字数 29 (2026-05-11T14:02:25.292Z)</title></circle><circle cx="451.18" cy="446.17" r="2.5"><title>総文字数 29 (2026-05-11T14:02:35.292Z)</title></circle><circle cx="479.41" cy="96.17" r="2.5"><title>総文字数 329 (2026-05-11T14:02:45.292Z)</title></circle><circle cx="507.65" cy="96.17" r="2.5"><title>総文字数 329 (2026-05-11T14:02:55.292Z)</title></circle><circle cx="535.88" cy="96.17" r="2.5"><title>総文字数 329 (2026-05-11T14:03:05.292Z)</title></circle><circle cx="564.12" cy="96.17" r="2.5"><title>総文字数 329 (2026-05-11T14:03:15.292Z)</title></circle><circle cx="592.35" cy="86.83" r="2.5"><title>総文字数 337 (2026-05-11T14:03:25.292Z)</title></circle><circle cx="620.59" cy="86.83" r="2.5"><title>総文字数 337 (2026-05-11T14:03:35.292Z)</title></circle><circle cx="648.82" cy="86.83" r="2.5"><title>総文字数 337 (2026-05-11T14:03:45.292Z)</title></circle><circle cx="677.06" cy="77.50" r="2.5"><title>総文字数 345 (2026-05-11T14:03:55.292Z)</title></circle><circle cx="705.29" cy="77.50" r="2.5"><title>総文字数 345 (2026-05-11T14:04:05.292Z)</title></circle><circle cx="733.53" cy="77.50" r="2.5"><title>総文字数 345 (2026-05-11T14:04:15.292Z)</title></circle><circle cx="761.76" cy="77.50" r="2.5"><title>総文字数 345 (2026-05-11T14:04:25.292Z)</title></circle><circle cx="790.00" cy="70.50" r="2.5"><title>総文字数 351 (2026-05-11T14:04:35.292Z)</title></circle><circle cx="818.24" cy="70.50" r="2.5"><title>総文字数 351 (2026-05-11T14:04:45.292Z)</title></circle><circle cx="846.47" cy="70.50" r="2.5"><title>総文字数 351 (2026-05-11T14:04:55.292Z)</title></circle><circle cx="874.71" cy="70.50" r="2.5"><title>総文字数 351 (2026-05-11T14:05:05.292Z)</title></circle><circle cx="902.94" cy="70.50" r="2.5"><title>総文字数 351 (2026-05-11T14:05:15.292Z)</title></circle><circle cx="931.18" cy="67.00" r="2.5"><title>総文字数 354 (2026-05-11T14:05:25.292Z)</title></circle><circle cx="959.41" cy="67.00" r="2.5"><title>総文字数 354 (2026-05-11T14:05:35.292Z)</title></circle><circle cx="987.65" cy="67.00" r="2.5"><title>総文字数 354 (2026-05-11T14:05:45.292Z)</title></circle><circle cx="1015.88" cy="60.00" r="2.5"><title>総文字数 360 (2026-05-11T14:05:55.292Z)</title></circle></g>

  <text x="20" y="50" font-size="11" fill="#555">文字数(追加/削除)</text>
  <text x="1010" y="50" font-size="11" fill="#1565c0">総文字数</text>

  <!-- 凡例 -->
  <g transform="translate(70, 528)">
    <rect x="0" y="-10" width="14" height="14" fill="#2e7d32" fill-opacity="0.85"/>
    <text x="20" y="1" font-size="12" fill="#333">追加</text>
    <rect x="70" y="-10" width="14" height="14" fill="#c62828" fill-opacity="0.85"/>
    <text x="90" y="1" font-size="12" fill="#333">削除</text>
    <line x1="140" y1="-3" x2="160" y2="-3" stroke="#1565c0" stroke-width="2.5"/>
    <text x="166" y="1" font-size="12" fill="#333">総文字数</text>
  </g>
</svg>